STARTFONT 2.1
COMMENT $Id: g032x40.bdf,v 1.2 1995/02/10 17:53:37 pierre Exp $
FONT -Lectra-Minitel-Medium-R-Normal--40-400-75-75-C-320-ISO2022-0
SIZE 40 75 75
FONTBOUNDINGBOX 32 40 0 -2
STARTPROPERTIES 19
FONTNAME_REGISTRY ""
FOUNDRY "Lectra"
FAMILY_NAME "Minitel"
WEIGHT_NAME "Medium"
SLANT "R"
SETWIDTH_NAME "Normal"
ADD_STYLE_NAME ""
PIXEL_SIZE 40
POINT_SIZE 400
RESOLUTION_X 75
RESOLUTION_Y 75
SPACING "C"
AVERAGE_WIDTH 80
CHARSET_REGISTRY "ISO2022-0"
CHARSET_ENCODING "1"
FONT_ASCENT 38
FONT_DESCENT 2
DEFAULT_CHAR 32
COPYRIGHT "Copyright 1991 Lectra-Systemes"
ENDPROPERTIES
CHARS 116
STARTCHAR C000
ENCODING 0
SWIDTH 666 0
DWIDTH 32 0
BBX 32 40 0 -2
BITMAP
00000000
00000000
00000000
00000000
00FF0000
00FF0000
00FF0000
00FF0000
0F00F000
0F00F000
0F00F000
0F00F000
0F000000
0F000000
0F000000
0F000000
0F000000
0F000000
0F000000
0F000000
FFFF0000
FFFF0000
FFFF0000
FFFF0000
0F000000
0F000000
0F000000
0F000000
0F000000
0F000000
0F000000
0F000000
FFFFF000
FFFFF000
FFFFF000
FFFFF000
00000000
00000000
00000000
00000000
ENDCHAR
STARTCHAR C001
ENCODING 1
SWIDTH 666 0
DWIDTH 32 0
BBX 32 40 0 -2
BITMAP
00000000
00000000
00000000
00000000
00000000
00000000
00000000
00000000
00000000
00000000
00000000
00000000
00F00000
00F00000
00F00000
00F00000
0FF00000
0FF00000
0FF00000
0FF00000
FFFFFFFF
FFFFFFFF
FFFFFFFF
FFFFFFFF
0FF00000
0FF00000
0FF00000
0FF00000
00F00000
00F00000
00F00000
00F00000
00000000
00000000
00000000
00000000
00000000
00000000
00000000
00000000
ENDCHAR
STARTCHAR C002
ENCODING 2
SWIDTH 666 0
DWIDTH 32 0
BBX 32 40 0 -2
BITMAP
00000000
00000000
00000000
00000000
0000F000
0000F000
0000F000
0000F000
000FFF00
000FFF00
000FFF00
000FFF00
00FFFFF0
00FFFFF0
00FFFFF0
00FFFFF0
0000F000
0000F000
0000F000
0000F000
0000F000
0000F000
0000F000
0000F000
0000F000
0000F000
0000F000
0000F000
0000F000
0000F000
0000F000
0000F000
0000F000
0000F000
0000F000
0000F000
0000F000
0000F000
0000F000
0000F000
ENDCHAR
STARTCHAR C003
ENCODING 3
SWIDTH 666 0
DWIDTH 32 0
BBX 32 40 0 -2
BITMAP
00000000
00000000
00000000
00000000
00000000
00000000
00000000
00000000
00000000
00000000
00000000
00000000
00000F00
00000F00
00000F00
00000F00
00000FF0
00000FF0
00000FF0
00000FF0
FFFFFFFF
FFFFFFFF
FFFFFFFF
FFFFFFFF
00000FF0
00000FF0
00000FF0
00000FF0
00000F00
00000F00
00000F00
00000F00
00000000
00000000
00000000
00000000
00000000
00000000
00000000
00000000
ENDCHAR
STARTCHAR C004
ENCODING 4
SWIDTH 666 0
DWIDTH 32 0
BBX 32 40 0 -2
BITMAP
00000000
00000000
00000000
00000000
0000F000
0000F000
0000F000
0000F000
0000F000
0000F000
0000F000
0000F000
0000F000
0000F000
0000F000
0000F000
0000F000
0000F000
0000F000
0000F000
0000F000
0000F000
0000F000
0000F000
0000F000
0000F000
0000F000
0000F000
00FFFFF0
00FFFFF0
00FFFFF0
00FFFFF0
000FFF00
000FFF00
000FFF00
000FFF00
0000F000
0000F000
0000F000
0000F000
ENDCHAR
STARTCHAR C005
ENCODING 5
SWIDTH 666 0
DWIDTH 32 0
BBX 32 40 0 -2
BITMAP
0FF00000
0FF00000
0FF00000
0FF00000
F00F0000
F00F0000
F00F0000
F00F0000
F00F0000
F00F0000
F00F0000
F00F0000
0FF00000
0FF00000
0FF00000
0FF00000
00000000
00000000
00000000
00000000
00000000
00000000
00000000
00000000
00000000
00000000
00000000
00000000
00000000
00000000
00000000
00000000
00000000
00000000
00000000
00000000
00000000
00000000
00000000
00000000
ENDCHAR
STARTCHAR C006
ENCODING 6
SWIDTH 666 0
DWIDTH 32 0
BBX 32 40 0 -2
BITMAP
00000000
00000000
00000000
00000000
00000000
00000000
00000000
00000000
00F00000
00F00000
00F00000
00F00000
00F00000
00F00000
00F00000
00F00000
FFFFF000
FFFFF000
FFFFF000
FFFFF000
00F00000
00F00000
00F00000
00F00000
00F00000
00F00000
00F00000
00F00000
FFFFF000
FFFFF000
FFFFF000
FFFFF000
00000000
00000000
00000000
00000000
00000000
00000000
00000000
00000000
ENDCHAR
STARTCHAR C007
ENCODING 7
SWIDTH 666 0
DWIDTH 32 0
BBX 32 40 0 -2
BITMAP
00000000
00000000
00000000
00000000
00000000
00000000
00000000
00000000
0000F000
0000F000
0000F000
0000F000
00000000
00000000
00000000
00000000
0FFFFFFF
0FFFFFFF
0FFFFFFF
0FFFFFFF
00000000
00000000
00000000
00000000
0000F000
0000F000
0000F000
0000F000
00000000
00000000
00000000
00000000
00000000
00000000
00000000
00000000
00000000
00000000
00000000
00000000
ENDCHAR
STARTCHAR C008
ENCODING 8
SWIDTH 666 0
DWIDTH 32 0
BBX 32 40 0 -2
BITMAP
00000000
00000000
00000000
00000000
F0000F00
F0000F00
F0000F00
F0000F00
F000F000
F000F000
F000F000
F000F000
F000F000
F000F000
F000F000
F000F000
F00F00F0
F00F00F0
F00F00F0
F00F00F0
F00F0FF0
F00F0FF0
F00F0FF0
F00F0FF0
00F0F0F0
00F0F0F0
00F0F0F0
00F0F0F0
00F0FFFF
00F0FFFF
00F0FFFF
00F0FFFF
0F0000F0
0F0000F0
0F0000F0
0F0000F0
00000000
00000000
00000000
00000000
ENDCHAR
STARTCHAR C009
ENCODING 9
SWIDTH 666 0
DWIDTH 32 0
BBX 32 40 0 -2
BITMAP
00000000
00000000
00000000
00000000
F0000F00
F0000F00
F0000F00
F0000F00
F000F000
F000F000
F000F000
F000F000
F000F000
F000F000
F000F000
F000F000
F00F0FF0
F00F0FF0
F00F0FF0
F00F0FF0
F00FF00F
F00FF00F
F00FF00F
F00FF00F
00F000FF
00F000FF
00F000FF
00F000FF
00F00F00
00F00F00
00F00F00
00F00F00
0F00FFFF
0F00FFFF
0F00FFFF
0F00FFFF
00000000
00000000
00000000
00000000
ENDCHAR
STARTCHAR C010
ENCODING 10
SWIDTH 666 0
DWIDTH 32 0
BBX 32 40 0 -2
BITMAP
00000000
00000000
00000000
00000000
FFF000F0
FFF000F0
FFF000F0
FFF000F0
00F00F00
00F00F00
00F00F00
00F00F00
0FF00F00
0FF00F00
0FF00F00
0FF00F00
00F0F0F0
00F0F0F0
00F0F0F0
00F0F0F0
FFF0FFF0
FFF0FFF0
FFF0FFF0
FFF0FFF0
000FF0F0
000FF0F0
000FF0F0
000FF0F0
000FFFFF
000FFFFF
000FFFFF
000FFFFF
00F000F0
00F000F0
00F000F0
00F000F0
00000000
00000000
00000000
00000000
ENDCHAR
STARTCHAR C011
ENCODING 11
SWIDTH 666 0
DWIDTH 32 0
BBX 32 40 0 -2
BITMAP
00000000
00000000
00000000
00000000
00FF0000
00FF0000
00FF0000
00FF0000
000FF000
000FF000
000FF000
000FF000
00000000
00000000
00000000
00000000
00000000
00000000
00000000
00000000
00000000
00000000
00000000
00000000
00000000
00000000
00000000
00000000
00000000
00000000
00000000
00000000
00000000
00000000
00000000
00000000
00000000
00000000
00000000
00000000
ENDCHAR
STARTCHAR C012
ENCODING 12
SWIDTH 666 0
DWIDTH 32 0
BBX 32 40 0 -2
BITMAP
00000000
00000000
00000000
00000000
00000FF0
00000FF0
00000FF0
00000FF0
0000FF00
0000FF00
0000FF00
0000FF00
00000000
00000000
00000000
00000000
00000000
00000000
00000000
00000000
00000000
00000000
00000000
00000000
00000000
00000000
00000000
00000000
00000000
00000000
00000000
00000000
00000000
00000000
00000000
00000000
00000000
00000000
00000000
00000000
ENDCHAR
STARTCHAR C013
ENCODING 13
SWIDTH 666 0
DWIDTH 32 0
BBX 32 40 0 -2
BITMAP
00000000
00000000
00000000
00000000
000FFF00
000FFF00
000FFF00
000FFF00
00FF0FF0
00FF0FF0
00FF0FF0
00FF0FF0
00000000
00000000
00000000
00000000
00000000
00000000
00000000
00000000
00000000
00000000
00000000
00000000
00000000
00000000
00000000
00000000
00000000
00000000
00000000
00000000
00000000
00000000
00000000
00000000
00000000
00000000
00000000
00000000
ENDCHAR
STARTCHAR C014
ENCODING 14
SWIDTH 666 0
DWIDTH 32 0
BBX 32 40 0 -2
BITMAP
00000000
00000000
00000000
00000000
00FF0FF0
00FF0FF0
00FF0FF0
00FF0FF0
00000000
00000000
00000000
00000000
00000000
00000000
00000000
00000000
00000000
00000000
00000000
00000000
00000000
00000000
00000000
00000000
00000000
00000000
00000000
00000000
00000000
00000000
00000000
00000000
00000000
00000000
00000000
00000000
00000000
00000000
00000000
00000000
ENDCHAR
STARTCHAR C015
ENCODING 15
SWIDTH 666 0
DWIDTH 32 0
BBX 32 40 0 -2
BITMAP
00000000
00000000
00000000
00000000
00000000
00000000
00000000
00000000
00000000
00000000
00000000
00000000
00000000
00000000
00000000
00000000
00000000
00000000
00000000
00000000
00000000
00000000
00000000
00000000
00000000
00000000
00000000
00000000
00000000
00000000
00000000
00000000
000FF000
000FF000
000FF000
000FF000
00FFF000
00FFF000
00FFF000
00FFF000
ENDCHAR
STARTCHAR C016
ENCODING 16
SWIDTH 666 0
DWIDTH 32 0
BBX 32 40 0 -2
BITMAP
00000000
00000000
00000000
00000000
00FFFFFF
00FFFFFF
00FFFFFF
00FFFFFF
0F00F000
0F00F000
0F00F000
0F00F000
F000F000
F000F000
F000F000
F000F000
F000FFF0
F000FFF0
F000FFF0
F000FFF0
F000F000
F000F000
F000F000
F000F000
0F00F000
0F00F000
0F00F000
0F00F000
00FFFFFF
00FFFFFF
00FFFFFF
00FFFFFF
00000000
00000000
00000000
00000000
00000000
00000000
00000000
00000000
ENDCHAR
STARTCHAR C017
ENCODING 17
SWIDTH 666 0
DWIDTH 32 0
BBX 32 40 0 -2
BITMAP
00000000
00000000
00000000
00000000
00000000
00000000
00000000
00000000
00000000
00000000
00000000
00000000
0FFF0FFF
0FFF0FFF
0FFF0FFF
0FFF0FFF
F000F00F
F000F00F
F000F00F
F000F00F
F000FFFF
F000FFFF
F000FFFF
F000FFFF
F000F000
F000F000
F000F000
F000F000
0FFF0FFF
0FFF0FFF
0FFF0FFF
0FFF0FFF
00000000
00000000
00000000
00000000
00000000
00000000
00000000
00000000
ENDCHAR
STARTCHAR C018
ENCODING 18
SWIDTH 666 0
DWIDTH 32 0
BBX 32 40 0 -2
BITMAP
00000000
00000000
00000000
00000000
00FF0000
00FF0000
00FF0000
00FF0000
0F00F000
0F00F000
0F00F000
0F00F000
F000F000
F000F000
F000F000
F000F000
F00F0000
F00F0000
F00F0000
F00F0000
F0FF0000
F0FF0000
F0FF0000
F0FF0000
F000FF00
F000FF00
F000FF00
F000FF00
F0F00F00
F0F00F00
F0F00F00
F0F00F00
FF0FF000
FF0FF000
FF0FF000
FF0FF000
00000000
00000000
00000000
00000000
ENDCHAR
STARTCHAR C019
ENCODING 19
SWIDTH 666 0
DWIDTH 32 0
BBX 32 40 0 -2
BITMAP
0FFF0000
0FFF0000
0FFF0000
0FFF0000
F000F000
F000F000
F000F000
F000F000
FF000000
FF000000
FF000000
FF000000
0FFF0000
0FFF0000
0FFF0000
0FFF0000
F000F000
F000F000
F000F000
F000F000
F000F000
F000F000
F000F000
F000F000
0FFF0000
0FFF0000
0FFF0000
0FFF0000
000FF000
000FF000
000FF000
000FF000
F000F000
F000F000
F000F000
F000F000
0FFF0000
0FFF0000
0FFF0000
0FFF0000
ENDCHAR
STARTCHAR C032
ENCODING 32
SWIDTH 666 0
DWIDTH 32 0
BBX 32 40 0 -2
BITMAP
00000000
00000000
00000000
00000000
00000000
00000000
00000000
00000000
00000000
00000000
00000000
00000000
00000000
00000000
00000000
00000000
00000000
00000000
00000000
00000000
00000000
00000000
00000000
00000000
00000000
00000000
00000000
00000000
00000000
00000000
00000000
00000000
00000000
00000000
00000000
00000000
00000000
00000000
00000000
00000000
ENDCHAR
STARTCHAR C033
ENCODING 33
SWIDTH 666 0
DWIDTH 32 0
BBX 32 40 0 -2
BITMAP
0000f000
0000f000
0000f000
0000f000
0000f000
0000f000
0000f000
0000f000
0000f000
0000f000
0000f000
0000f000
0000f000
0000f000
0000f000
0000f000
0000f000
0000f000
0000f000
0000f000
0000f000
0000f000
0000f000
0000f000
00000000
00000000
00000000
00000000
0000f000
0000f000
0000f000
0000f000
00000000
00000000
00000000
00000000
00000000
00000000
00000000
00000000
ENDCHAR
STARTCHAR C034
ENCODING 34
SWIDTH 666 0
DWIDTH 32 0
BBX 32 40 0 -2
BITMAP
000f0f00
000f0f00
000f0f00
000f0f00
000f0f00
000f0f00
000f0f00
000f0f00
000f0f00
000f0f00
000f0f00
000f0f00
00000000
00000000
00000000
00000000
00000000
00000000
00000000
00000000
00000000
00000000
00000000
00000000
00000000
00000000
00000000
00000000
00000000
00000000
00000000
00000000
00000000
00000000
00000000
00000000
00000000
00000000
00000000
00000000
ENDCHAR
STARTCHAR C035
ENCODING 35
SWIDTH 666 0
DWIDTH 32 0
BBX 32 40 0 -2
BITMAP
00f00f00
00f00f00
00f00f00
00f00f00
00f00f00
00f00f00
00f00f00
00f00f00
0ffffff0
0ffffff0
0ffffff0
0ffffff0
00f00f00
00f00f00
00f00f00
00f00f00
00f00f00
00f00f00
00f00f00
00f00f00
0ffffff0
0ffffff0
0ffffff0
0ffffff0
00f00f00
00f00f00
00f00f00
00f00f00
00f00f00
00f00f00
00f00f00
00f00f00
00000000
00000000
00000000
00000000
00000000
00000000
00000000
00000000
ENDCHAR
STARTCHAR C036
ENCODING 36
SWIDTH 666 0
DWIDTH 32 0
BBX 32 40 0 -2
BITMAP
00000000
00000000
00000000
00000000
0000f000
0000f000
0000f000
0000f000
000ffff0
000ffff0
000ffff0
000ffff0
00f0f000
00f0f000
00f0f000
00f0f000
000fff00
000fff00
000fff00
000fff00
0000f0f0
0000f0f0
0000f0f0
0000f0f0
00ffff00
00ffff00
00ffff00
00ffff00
0000f000
0000f000
0000f000
0000f000
00000000
00000000
00000000
00000000
00000000
00000000
00000000
00000000
ENDCHAR
STARTCHAR C037
ENCODING 37
SWIDTH 666 0
DWIDTH 32 0
BBX 32 40 0 -2
BITMAP
00000000
00000000
00000000
00000000
00f000f0
00f000f0
00f000f0
00f000f0
0f0f0f00
0f0f0f00
0f0f0f00
0f0f0f00
00f00f00
00f00f00
00f00f00
00f00f00
0000f000
0000f000
0000f000
0000f000
000f00f0
000f00f0
000f00f0
000f00f0
000f0f0f
000f0f0f
000f0f0f
000f0f0f
00f000f0
00f000f0
00f000f0
00f000f0
00000000
00000000
00000000
00000000
00000000
00000000
00000000
00000000
ENDCHAR
STARTCHAR C038
ENCODING 38
SWIDTH 666 0
DWIDTH 32 0
BBX 32 40 0 -2
BITMAP
00000000
00000000
00000000
00000000
00fff000
00fff000
00fff000
00fff000
0f000000
0f000000
0f000000
0f000000
00f00000
00f00000
00f00000
00f00000
00ff0000
00ff0000
00ff0000
00ff0000
0f00f0f0
0f00f0f0
0f00f0f0
0f00f0f0
0f000f00
0f000f00
0f000f00
0f000f00
00fff0f0
00fff0f0
00fff0f0
00fff0f0
00000000
00000000
00000000
00000000
00000000
00000000
00000000
00000000
ENDCHAR
STARTCHAR C039
ENCODING 39
SWIDTH 666 0
DWIDTH 32 0
BBX 32 40 0 -2
BITMAP
0000ff00
0000ff00
0000ff00
0000ff00
0000f000
0000f000
0000f000
0000f000
000f0000
000f0000
000f0000
000f0000
00000000
00000000
00000000
00000000
00000000
00000000
00000000
00000000
00000000
00000000
00000000
00000000
00000000
00000000
00000000
00000000
00000000
00000000
00000000
00000000
00000000
00000000
00000000
00000000
00000000
00000000
00000000
00000000
ENDCHAR
STARTCHAR C040
ENCODING 40
SWIDTH 666 0
DWIDTH 32 0
BBX 32 40 0 -2
BITMAP
00000f00
00000f00
00000f00
00000f00
0000f000
0000f000
0000f000
0000f000
0000f000
0000f000
0000f000
0000f000
000f0000
000f0000
000f0000
000f0000
000f0000
000f0000
000f0000
000f0000
000f0000
000f0000
000f0000
000f0000
0000f000
0000f000
0000f000
0000f000
0000f000
0000f000
0000f000
0000f000
00000f00
00000f00
00000f00
00000f00
00000000
00000000
00000000
00000000
ENDCHAR
STARTCHAR C041
ENCODING 41
SWIDTH 666 0
DWIDTH 32 0
BBX 32 40 0 -2
BITMAP
000f0000
000f0000
000f0000
000f0000
0000f000
0000f000
0000f000
0000f000
0000f000
0000f000
0000f000
0000f000
00000f00
00000f00
00000f00
00000f00
00000f00
00000f00
00000f00
00000f00
00000f00
00000f00
00000f00
00000f00
0000f000
0000f000
0000f000
0000f000
0000f000
0000f000
0000f000
0000f000
000f0000
000f0000
000f0000
000f0000
00000000
00000000
00000000
00000000
ENDCHAR
STARTCHAR C042
ENCODING 42
SWIDTH 666 0
DWIDTH 32 0
BBX 32 40 0 -2
BITMAP
00000000
00000000
00000000
00000000
0000f000
0000f000
0000f000
0000f000
0000f000
0000f000
0000f000
0000f000
0ff0f0ff
0ff0f0ff
0ff0f0ff
0ff0f0ff
000fff00
000fff00
000fff00
000fff00
0000f000
0000f000
0000f000
0000f000
000f0f00
000f0f00
000f0f00
000f0f00
00f000f0
00f000f0
00f000f0
00f000f0
00000000
00000000
00000000
00000000
00000000
00000000
00000000
00000000
ENDCHAR
STARTCHAR C043
ENCODING 43
SWIDTH 666 0
DWIDTH 32 0
BBX 32 40 0 -2
BITMAP
00000000
00000000
00000000
00000000
0000f000
0000f000
0000f000
0000f000
0000f000
0000f000
0000f000
0000f000
0000f000
0000f000
0000f000
0000f000
0fffffff
0fffffff
0fffffff
0fffffff
0000f000
0000f000
0000f000
0000f000
0000f000
0000f000
0000f000
0000f000
0000f000
0000f000
0000f000
0000f000
00000000
00000000
00000000
00000000
00000000
00000000
00000000
00000000
ENDCHAR
STARTCHAR C044
ENCODING 44
SWIDTH 666 0
DWIDTH 32 0
BBX 32 40 0 -2
BITMAP
00000000
00000000
00000000
00000000
00000000
00000000
00000000
00000000
00000000
00000000
00000000
00000000
00000000
00000000
00000000
00000000
00000000
00000000
00000000
00000000
00000000
00000000
00000000
00000000
000ff000
000ff000
000ff000
000ff000
000f0000
000f0000
000f0000
000f0000
00f00000
00f00000
00f00000
00f00000
00000000
00000000
00000000
00000000
ENDCHAR
STARTCHAR C045
ENCODING 45
SWIDTH 666 0
DWIDTH 32 0
BBX 32 40 0 -2
BITMAP
00000000
00000000
00000000
00000000
00000000
00000000
00000000
00000000
00000000
00000000
00000000
00000000
00000000
00000000
00000000
00000000
0fffffff
0fffffff
0fffffff
0fffffff
00000000
00000000
00000000
00000000
00000000
00000000
00000000
00000000
00000000
00000000
00000000
00000000
00000000
00000000
00000000
00000000
00000000
00000000
00000000
00000000
ENDCHAR
STARTCHAR C046
ENCODING 46
SWIDTH 666 0
DWIDTH 32 0
BBX 32 40 0 -2
BITMAP
00000000
00000000
00000000
00000000
00000000
00000000
00000000
00000000
00000000
00000000
00000000
00000000
00000000
00000000
00000000
00000000
00000000
00000000
00000000
00000000
00000000
00000000
00000000
00000000
000ff000
000ff000
000ff000
000ff000
000ff000
000ff000
000ff000
000ff000
00000000
00000000
00000000
00000000
00000000
00000000
00000000
00000000
ENDCHAR
STARTCHAR C047
ENCODING 47
SWIDTH 666 0
DWIDTH 32 0
BBX 32 40 0 -2
BITMAP
0000000f
0000000f
0000000f
0000000f
000000f0
000000f0
000000f0
000000f0
00000f00
00000f00
00000f00
00000f00
00000f00
00000f00
00000f00
00000f00
0000f000
0000f000
0000f000
0000f000
000f0000
000f0000
000f0000
000f0000
00f00000
00f00000
00f00000
00f00000
00f00000
00f00000
00f00000
00f00000
0f000000
0f000000
0f000000
0f000000
f0000000
f0000000
f0000000
f0000000
ENDCHAR
STARTCHAR C048
ENCODING 48
SWIDTH 666 0
DWIDTH 32 0
BBX 32 40 0 -2
BITMAP
00ffff00
00ffff00
00ffff00
00ffff00
0f0000f0
0f0000f0
0f0000f0
0f0000f0
0f0000f0
0f0000f0
0f0000f0
0f0000f0
0f0000f0
0f0000f0
0f0000f0
0f0000f0
0f0000f0
0f0000f0
0f0000f0
0f0000f0
0f0000f0
0f0000f0
0f0000f0
0f0000f0
0f0000f0
0f0000f0
0f0000f0
0f0000f0
00ffff00
00ffff00
00ffff00
00ffff00
00000000
00000000
00000000
00000000
00000000
00000000
00000000
00000000
ENDCHAR
STARTCHAR C049
ENCODING 49
SWIDTH 666 0
DWIDTH 32 0
BBX 32 40 0 -2
BITMAP
0000f000
0000f000
0000f000
0000f000
000ff000
000ff000
000ff000
000ff000
0000f000
0000f000
0000f000
0000f000
0000f000
0000f000
0000f000
0000f000
0000f000
0000f000
0000f000
0000f000
0000f000
0000f000
0000f000
0000f000
0000f000
0000f000
0000f000
0000f000
0000f000
0000f000
0000f000
0000f000
00000000
00000000
00000000
00000000
00000000
00000000
00000000
00000000
ENDCHAR
STARTCHAR C050
ENCODING 50
SWIDTH 666 0
DWIDTH 32 0
BBX 32 40 0 -2
BITMAP
00ffff00
00ffff00
00ffff00
00ffff00
0f0000f0
0f0000f0
0f0000f0
0f0000f0
000000f0
000000f0
000000f0
000000f0
00000f00
00000f00
00000f00
00000f00
0000f000
0000f000
0000f000
0000f000
000f0000
000f0000
000f0000
000f0000
00f00000
00f00000
00f00000
00f00000
0ffffff0
0ffffff0
0ffffff0
0ffffff0
00000000
00000000
00000000
00000000
00000000
00000000
00000000
00000000
ENDCHAR
STARTCHAR C051
ENCODING 51
SWIDTH 666 0
DWIDTH 32 0
BBX 32 40 0 -2
BITMAP
00ffff00
00ffff00
00ffff00
00ffff00
0f0000f0
0f0000f0
0f0000f0
0f0000f0
000000f0
000000f0
000000f0
000000f0
000fff00
000fff00
000fff00
000fff00
000000f0
000000f0
000000f0
000000f0
000000f0
000000f0
000000f0
000000f0
0f0000f0
0f0000f0
0f0000f0
0f0000f0
00ffff00
00ffff00
00ffff00
00ffff00
00000000
00000000
00000000
00000000
00000000
00000000
00000000
00000000
ENDCHAR
STARTCHAR C052
ENCODING 52
SWIDTH 666 0
DWIDTH 32 0
BBX 32 40 0 -2
BITMAP
0000ff00
0000ff00
0000ff00
0000ff00
0000ff00
0000ff00
0000ff00
0000ff00
000f0f00
000f0f00
000f0f00
000f0f00
000f0f00
000f0f00
000f0f00
000f0f00
00f00f00
00f00f00
00f00f00
00f00f00
0ffffff0
0ffffff0
0ffffff0
0ffffff0
00000f00
00000f00
00000f00
00000f00
0000fff0
0000fff0
0000fff0
0000fff0
00000000
00000000
00000000
00000000
00000000
00000000
00000000
00000000
ENDCHAR
STARTCHAR C053
ENCODING 53
SWIDTH 666 0
DWIDTH 32 0
BBX 32 40 0 -2
BITMAP
0ffffff0
0ffffff0
0ffffff0
0ffffff0
0f000000
0f000000
0f000000
0f000000
0f000000
0f000000
0f000000
0f000000
0fffff00
0fffff00
0fffff00
0fffff00
000000f0
000000f0
000000f0
000000f0
000000f0
000000f0
000000f0
000000f0
0f0000f0
0f0000f0
0f0000f0
0f0000f0
00ffff00
00ffff00
00ffff00
00ffff00
00000000
00000000
00000000
00000000
00000000
00000000
00000000
00000000
ENDCHAR
STARTCHAR C054
ENCODING 54
SWIDTH 666 0
DWIDTH 32 0
BBX 32 40 0 -2
BITMAP
000fff00
000fff00
000fff00
000fff00
00f00000
00f00000
00f00000
00f00000
0f000000
0f000000
0f000000
0f000000
0fffff00
0fffff00
0fffff00
0fffff00
0f0000f0
0f0000f0
0f0000f0
0f0000f0
0f0000f0
0f0000f0
0f0000f0
0f0000f0
0f0000f0
0f0000f0
0f0000f0
0f0000f0
00ffff00
00ffff00
00ffff00
00ffff00
00000000
00000000
00000000
00000000
00000000
00000000
00000000
00000000
ENDCHAR
STARTCHAR C055
ENCODING 55
SWIDTH 666 0
DWIDTH 32 0
BBX 32 40 0 -2
BITMAP
0ffffff0
0ffffff0
0ffffff0
0ffffff0
0f0000f0
0f0000f0
0f0000f0
0f0000f0
00000f00
00000f00
00000f00
00000f00
00000f00
00000f00
00000f00
00000f00
0000f000
0000f000
0000f000
0000f000
0000f000
0000f000
0000f000
0000f000
000f0000
000f0000
000f0000
000f0000
000f0000
000f0000
000f0000
000f0000
00000000
00000000
00000000
00000000
00000000
00000000
00000000
00000000
ENDCHAR
STARTCHAR C056
ENCODING 56
SWIDTH 666 0
DWIDTH 32 0
BBX 32 40 0 -2
BITMAP
00ffff00
00ffff00
00ffff00
00ffff00
0f0000f0
0f0000f0
0f0000f0
0f0000f0
0f0000f0
0f0000f0
0f0000f0
0f0000f0
00ffff00
00ffff00
00ffff00
00ffff00
0f0000f0
0f0000f0
0f0000f0
0f0000f0
0f0000f0
0f0000f0
0f0000f0
0f0000f0
0f0000f0
0f0000f0
0f0000f0
0f0000f0
00ffff00
00ffff00
00ffff00
00ffff00
00000000
00000000
00000000
00000000
00000000
00000000
00000000
00000000
ENDCHAR
STARTCHAR C057
ENCODING 57
SWIDTH 666 0
DWIDTH 32 0
BBX 32 40 0 -2
BITMAP
00ffff00
00ffff00
00ffff00
00ffff00
0f0000f0
0f0000f0
0f0000f0
0f0000f0
0f0000f0
0f0000f0
0f0000f0
0f0000f0
0f0000f0
0f0000f0
0f0000f0
0f0000f0
00fffff0
00fffff0
00fffff0
00fffff0
000000f0
000000f0
000000f0
000000f0
00000f00
00000f00
00000f00
00000f00
00fff000
00fff000
00fff000
00fff000
00000000
00000000
00000000
00000000
00000000
00000000
00000000
00000000
ENDCHAR
STARTCHAR C058
ENCODING 58
SWIDTH 666 0
DWIDTH 32 0
BBX 32 40 0 -2
BITMAP
00000000
00000000
00000000
00000000
00000000
00000000
00000000
00000000
000ff000
000ff000
000ff000
000ff000
000ff000
000ff000
000ff000
000ff000
00000000
00000000
00000000
00000000
00000000
00000000
00000000
00000000
000ff000
000ff000
000ff000
000ff000
000ff000
000ff000
000ff000
000ff000
00000000
00000000
00000000
00000000
00000000
00000000
00000000
00000000
ENDCHAR
STARTCHAR C059
ENCODING 59
SWIDTH 666 0
DWIDTH 32 0
BBX 32 40 0 -2
BITMAP
00000000
00000000
00000000
00000000
00000000
00000000
00000000
00000000
000ff000
000ff000
000ff000
000ff000
000ff000
000ff000
000ff000
000ff000
00000000
00000000
00000000
00000000
00000000
00000000
00000000
00000000
000ff000
000ff000
000ff000
000ff000
000f0000
000f0000
000f0000
000f0000
00f00000
00f00000
00f00000
00f00000
00000000
00000000
00000000
00000000
ENDCHAR
STARTCHAR C060
ENCODING 60
SWIDTH 666 0
DWIDTH 32 0
BBX 32 40 0 -2
BITMAP
00000000
00000000
00000000
00000000
00000000
00000000
00000000
00000000
00000ff0
00000ff0
00000ff0
00000ff0
000ff000
000ff000
000ff000
000ff000
0ff00000
0ff00000
0ff00000
0ff00000
000ff000
000ff000
000ff000
000ff000
00000ff0
00000ff0
00000ff0
00000ff0
00000000
00000000
00000000
00000000
00000000
00000000
00000000
00000000
00000000
00000000
00000000
00000000
ENDCHAR
STARTCHAR C061
ENCODING 61
SWIDTH 666 0
DWIDTH 32 0
BBX 32 40 0 -2
BITMAP
00000000
00000000
00000000
00000000
00000000
00000000
00000000
00000000
00000000
00000000
00000000
00000000
0fffffff
0fffffff
0fffffff
0fffffff
00000000
00000000
00000000
00000000
00000000
00000000
00000000
00000000
0fffffff
0fffffff
0fffffff
0fffffff
00000000
00000000
00000000
00000000
00000000
00000000
00000000
00000000
00000000
00000000
00000000
00000000
ENDCHAR
STARTCHAR C062
ENCODING 62
SWIDTH 666 0
DWIDTH 32 0
BBX 32 40 0 -2
BITMAP
00000000
00000000
00000000
00000000
00000000
00000000
00000000
00000000
0ff00000
0ff00000
0ff00000
0ff00000
000ff000
000ff000
000ff000
000ff000
00000ff0
00000ff0
00000ff0
00000ff0
000ff000
000ff000
000ff000
000ff000
0ff00000
0ff00000
0ff00000
0ff00000
00000000
00000000
00000000
00000000
00000000
00000000
00000000
00000000
00000000
00000000
00000000
00000000
ENDCHAR
STARTCHAR C063
ENCODING 63
SWIDTH 666 0
DWIDTH 32 0
BBX 32 40 0 -2
BITMAP
00ffff00
00ffff00
00ffff00
00ffff00
0f0000f0
0f0000f0
0f0000f0
0f0000f0
000000f0
000000f0
000000f0
000000f0
00000f00
00000f00
00000f00
00000f00
0000f000
0000f000
0000f000
0000f000
0000f000
0000f000
0000f000
0000f000
00000000
00000000
00000000
00000000
0000f000
0000f000
0000f000
0000f000
00000000
00000000
00000000
00000000
00000000
00000000
00000000
00000000
ENDCHAR
STARTCHAR C064
ENCODING 64
SWIDTH 666 0
DWIDTH 32 0
BBX 32 40 0 -2
BITMAP
00000000
00000000
00000000
00000000
000fff00
000fff00
000fff00
000fff00
00f000f0
00f000f0
00f000f0
00f000f0
0f00f00f
0f00f00f
0f00f00f
0f00f00f
0f0f0f0f
0f0f0f0f
0f0f0f0f
0f0f0f0f
0f00f0f0
0f00f0f0
0f00f0f0
0f00f0f0
00f00000
00f00000
00f00000
00f00000
000fff00
000fff00
000fff00
000fff00
00000000
00000000
00000000
00000000
00000000
00000000
00000000
00000000
ENDCHAR
STARTCHAR C065
ENCODING 65
SWIDTH 666 0
DWIDTH 32 0
BBX 32 40 0 -2
BITMAP
00000000
00000000
00000000
00000000
01fffff8
07fffffe
07fffffe
0f00000f
0f00000f
0f00000f
0f00000f
0f00000f
0f00000f
0f00000f
0f00000f
0f00000f
0fffffff
0fffffff
0fffffff
0fffffff
0f00000f
0f00000f
0f00000f
0f00000f
0f00000f
0f00000f
0f00000f
0f00000f
0f00000f
0f00000f
0f00000f
0f00000f
00000000
00000000
00000000
00000000
00000000
00000000
00000000
00000000
ENDCHAR
STARTCHAR C066
ENCODING 66
SWIDTH 666 0
DWIDTH 32 0
BBX 32 40 0 -2
BITMAP
00000000
00000000
00000000
00000000
0ffffff0
0ffffff0
0ffffff0
0ffffff0
0f00000f
0f00000f
0f00000f
0f00000f
0f00000f
0f00000f
0f00000f
0f00000f
0ffffff0
0ffffff0
0ffffff0
0ffffff0
0f00000f
0f00000f
0f00000f
0f00000f
0f00000f
0f00000f
0f00000f
0f00000f
0ffffff0
0ffffff0
0ffffff0
0ffffff0
00000000
00000000
00000000
00000000
00000000
00000000
00000000
00000000
ENDCHAR
STARTCHAR C067
ENCODING 67
SWIDTH 666 0
DWIDTH 32 0
BBX 32 40 0 -2
BITMAP
00000000
00000000
00000000
00000000
000ffff0
000ffff0
000ffff0
000ffff0
00f0000f
00f0000f
00f0000f
00f0000f
0f000000
0f000000
0f000000
0f000000
0f000000
0f000000
0f000000
0f000000
0f000000
0f000000
0f000000
0f000000
00f0000f
00f0000f
00f0000f
00f0000f
000ffff0
000ffff0
000ffff0
000ffff0
00000000
00000000
00000000
00000000
00000000
00000000
00000000
00000000
ENDCHAR
STARTCHAR C068
ENCODING 68
SWIDTH 666 0
DWIDTH 32 0
BBX 32 40 0 -2
BITMAP
00000000
00000000
00000000
00000000
0fffff00
0fffff00
0fffff00
0fffff00
0f0000f0
0f0000f0
0f0000f0
0f0000f0
0f00000f
0f00000f
0f00000f
0f00000f
0f00000f
0f00000f
0f00000f
0f00000f
0f00000f
0f00000f
0f00000f
0f00000f
0f0000f0
0f0000f0
0f0000f0
0f0000f0
0fffff00
0fffff00
0fffff00
0fffff00
00000000
00000000
00000000
00000000
00000000
00000000
00000000
00000000
ENDCHAR
STARTCHAR C069
ENCODING 69
SWIDTH 666 0
DWIDTH 32 0
BBX 32 40 0 -2
BITMAP
00000000
00000000
00000000
00000000
0fffffff
0fffffff
0fffffff
0fffffff
0f000000
0f000000
0f000000
0f000000
0f000000
0f000000
0f000000
0f000000
0fffff00
0fffff00
0fffff00
0fffff00
0f000000
0f000000
0f000000
0f000000
0f000000
0f000000
0f000000
0f000000
0fffffff
0fffffff
0fffffff
0fffffff
00000000
00000000
00000000
00000000
00000000
00000000
00000000
00000000
ENDCHAR
STARTCHAR C070
ENCODING 70
SWIDTH 666 0
DWIDTH 32 0
BBX 32 40 0 -2
BITMAP
00000000
00000000
00000000
00000000
0fffffff
0fffffff
0fffffff
0fffffff
0f000000
0f000000
0f000000
0f000000
0f000000
0f000000
0f000000
0f000000
0fffff00
0fffff00
0fffff00
0fffff00
0f000000
0f000000
0f000000
0f000000
0f000000
0f000000
0f000000
0f000000
0f000000
0f000000
0f000000
0f000000
00000000
00000000
00000000
00000000
00000000
00000000
00000000
00000000
ENDCHAR
STARTCHAR C071
ENCODING 71
SWIDTH 666 0
DWIDTH 32 0
BBX 32 40 0 -2
BITMAP
00000000
00000000
00000000
00000000
000ffff0
000ffff0
000ffff0
000ffff0
00f0000f
00f0000f
00f0000f
00f0000f
0f000000
0f000000
0f000000
0f000000
0f000fff
0f000fff
0f000fff
0f000fff
0f00000f
0f00000f
0f00000f
0f00000f
00f0000f
00f0000f
00f0000f
00f0000f
000fffff
000fffff
000fffff
000fffff
00000000
00000000
00000000
00000000
00000000
00000000
00000000
00000000
ENDCHAR
STARTCHAR C072
ENCODING 72
SWIDTH 666 0
DWIDTH 32 0
BBX 32 40 0 -2
BITMAP
00000000
00000000
00000000
00000000
0f00000f
0f00000f
0f00000f
0f00000f
0f00000f
0f00000f
0f00000f
0f00000f
0f00000f
0f00000f
0f00000f
0f00000f
0fffffff
0fffffff
0fffffff
0fffffff
0f00000f
0f00000f
0f00000f
0f00000f
0f00000f
0f00000f
0f00000f
0f00000f
0f00000f
0f00000f
0f00000f
0f00000f
00000000
00000000
00000000
00000000
00000000
00000000
00000000
00000000
ENDCHAR
STARTCHAR C073
ENCODING 73
SWIDTH 666 0
DWIDTH 32 0
BBX 32 40 0 -2
BITMAP
00000000
00000000
00000000
00000000
00fffff0
00fffff0
00fffff0
00fffff0
0000f000
0000f000
0000f000
0000f000
0000f000
0000f000
0000f000
0000f000
0000f000
0000f000
0000f000
0000f000
0000f000
0000f000
0000f000
0000f000
0000f000
0000f000
0000f000
0000f000
00fffff0
00fffff0
00fffff0
00fffff0
00000000
00000000
00000000
00000000
00000000
00000000
00000000
00000000
ENDCHAR
STARTCHAR C074
ENCODING 74
SWIDTH 666 0
DWIDTH 32 0
BBX 32 40 0 -2
BITMAP
00000000
00000000
00000000
00000000
0000fff0
0000fff0
0000fff0
0000fff0
000000f0
000000f0
000000f0
000000f0
000000f0
000000f0
000000f0
000000f0
000000f0
000000f0
000000f0
000000f0
0f0000f0
0f0000f0
0f0000f0
0f0000f0
0f0000f0
0f0000f0
0f0000f0
0f0000f0
00ffff00
00ffff00
00ffff00
00ffff00
00000000
00000000
00000000
00000000
00000000
00000000
00000000
00000000
ENDCHAR
STARTCHAR C075
ENCODING 75
SWIDTH 666 0
DWIDTH 32 0
BBX 32 40 0 -2
BITMAP
00000000
00000000
00000000
00000000
0f0000f0
0f0000f0
0f0000f0
0f0000f0
0f000f00
0f000f00
0f000f00
0f000f00
0f00f000
0f00f000
0f00f000
0f00f000
0fff0000
0fff0000
0fff0000
0fff0000
0f00f000
0f00f000
0f00f000
0f00f000
0f000f00
0f000f00
0f000f00
0f000f00
0f0000f0
0f0000f0
0f0000f0
0f0000f0
00000000
00000000
00000000
00000000
00000000
00000000
00000000
00000000
ENDCHAR
STARTCHAR C076
ENCODING 76
SWIDTH 666 0
DWIDTH 32 0
BBX 32 40 0 -2
BITMAP
00000000
00000000
00000000
00000000
0f000000
0f000000
0f000000
0f000000
0f000000
0f000000
0f000000
0f000000
0f000000
0f000000
0f000000
0f000000
0f000000
0f000000
0f000000
0f000000
0f000000
0f000000
0f000000
0f000000
0f000000
0f000000
0f000000
0f000000
0ffffff0
0ffffff0
0ffffff0
0ffffff0
00000000
00000000
00000000
00000000
00000000
00000000
00000000
00000000
ENDCHAR
STARTCHAR C077
ENCODING 77
SWIDTH 666 0
DWIDTH 32 0
BBX 32 40 0 -2
BITMAP
00000000
00000000
00000000
00000000
0f00000f
0f00000f
0f00000f
0f00000f
0ff000ff
0ff000ff
0ff000ff
0ff000ff
0f0f0f0f
0f0f0f0f
0f0f0f0f
0f0f0f0f
0f00f00f
0f00f00f
0f00f00f
0f00f00f
0f00000f
0f00000f
0f00000f
0f00000f
0f00000f
0f00000f
0f00000f
0f00000f
0f00000f
0f00000f
0f00000f
0f00000f
00000000
00000000
00000000
00000000
00000000
00000000
00000000
00000000
ENDCHAR
STARTCHAR C078
ENCODING 78
SWIDTH 666 0
DWIDTH 32 0
BBX 32 40 0 -2
BITMAP
00000000
00000000
00000000
00000000
0f00000f
0f00000f
0f00000f
0f00000f
0ff0000f
0ff0000f
0ff0000f
0ff0000f
0f0f000f
0f0f000f
0f0f000f
0f0f000f
0f00f00f
0f00f00f
0f00f00f
0f00f00f
0f000f0f
0f000f0f
0f000f0f
0f000f0f
0f0000ff
0f0000ff
0f0000ff
0f0000ff
0f00000f
0f00000f
0f00000f
0f00000f
00000000
00000000
00000000
00000000
00000000
00000000
00000000
00000000
ENDCHAR
STARTCHAR C079
ENCODING 79
SWIDTH 666 0
DWIDTH 32 0
BBX 32 40 0 -2
BITMAP
00000000
00000000
00000000
00000000
000fff00
000fff00
000fff00
000fff00
00f000f0
00f000f0
00f000f0
00f000f0
0f00000f
0f00000f
0f00000f
0f00000f
0f00000f
0f00000f
0f00000f
0f00000f
0f00000f
0f00000f
0f00000f
0f00000f
00f000f0
00f000f0
00f000f0
00f000f0
000fff00
000fff00
000fff00
000fff00
00000000
00000000
00000000
00000000
00000000
00000000
00000000
00000000
ENDCHAR
STARTCHAR C080
ENCODING 80
SWIDTH 666 0
DWIDTH 32 0
BBX 32 40 0 -2
BITMAP
00000000
00000000
00000000
00000000
0ffffff0
0ffffff0
0ffffff0
0ffffff0
0f00000f
0f00000f
0f00000f
0f00000f
0f00000f
0f00000f
0f00000f
0f00000f
0ffffff0
0ffffff0
0ffffff0
0ffffff0
0f000000
0f000000
0f000000
0f000000
0f000000
0f000000
0f000000
0f000000
0f000000
0f000000
0f000000
0f000000
00000000
00000000
00000000
00000000
00000000
00000000
00000000
00000000
ENDCHAR
STARTCHAR C081
ENCODING 81
SWIDTH 666 0
DWIDTH 32 0
BBX 32 40 0 -2
BITMAP
00000000
00000000
00000000
00000000
000fff00
000fff00
000fff00
000fff00
00f000f0
00f000f0
00f000f0
00f000f0
0f00000f
0f00000f
0f00000f
0f00000f
0f00000f
0f00000f
0f00000f
0f00000f
0f00000f
0f00000f
0f00000f
0f00000f
00f000f0
00f000f0
00f000f0
00f000f0
000fff00
000fff00
000fff00
000fff00
00000fff
00000fff
00000fff
00000fff
00000000
00000000
00000000
00000000
ENDCHAR
STARTCHAR C082
ENCODING 82
SWIDTH 666 0
DWIDTH 32 0
BBX 32 40 0 -2
BITMAP
00000000
00000000
00000000
00000000
0ffffff0
0ffffff0
0ffffff0
0ffffff0
0f00000f
0f00000f
0f00000f
0f00000f
0f00000f
0f00000f
0f00000f
0f00000f
0ffffff0
0ffffff0
0ffffff0
0ffffff0
0f000f00
0f000f00
0f000f00
0f000f00
0f0000f0
0f0000f0
0f0000f0
0f0000f0
0f00000f
0f00000f
0f00000f
0f00000f
00000000
00000000
00000000
00000000
00000000
00000000
00000000
00000000
ENDCHAR
STARTCHAR C083
ENCODING 83
SWIDTH 666 0
DWIDTH 32 0
BBX 32 40 0 -2
BITMAP
00000000
00000000
00000000
00000000
00fffff0
00fffff0
00fffff0
00fffff0
0f00000f
0f00000f
0f00000f
0f00000f
0f000000
0f000000
0f000000
0f000000
00fffff0
00fffff0
00fffff0
00fffff0
0000000f
0000000f
0000000f
0000000f
0f00000f
0f00000f
0f00000f
0f00000f
00fffff0
00fffff0
00fffff0
00fffff0
00000000
00000000
00000000
00000000
00000000
00000000
00000000
00000000
ENDCHAR
STARTCHAR C084
ENCODING 84
SWIDTH 666 0
DWIDTH 32 0
BBX 32 40 0 -2
BITMAP
00000000
00000000
00000000
00000000
0fffffff
0fffffff
0fffffff
0fffffff
0000f000
0000f000
0000f000
0000f000
0000f000
0000f000
0000f000
0000f000
0000f000
0000f000
0000f000
0000f000
0000f000
0000f000
0000f000
0000f000
0000f000
0000f000
0000f000
0000f000
0000f000
0000f000
0000f000
0000f000
00000000
00000000
00000000
00000000
00000000
00000000
00000000
00000000
ENDCHAR
STARTCHAR C085
ENCODING 85
SWIDTH 666 0
DWIDTH 32 0
BBX 32 40 0 -2
BITMAP
00000000
00000000
00000000
00000000
0f00000f
0f00000f
0f00000f
0f00000f
0f00000f
0f00000f
0f00000f
0f00000f
0f00000f
0f00000f
0f00000f
0f00000f
0f00000f
0f00000f
0f00000f
0f00000f
0f00000f
0f00000f
0f00000f
0f00000f
0f00000f
0f00000f
0f00000f
0f00000f
00fffff0
00fffff0
00fffff0
00fffff0
00000000
00000000
00000000
00000000
00000000
00000000
00000000
00000000
ENDCHAR
STARTCHAR C086
ENCODING 86
SWIDTH 666 0
DWIDTH 32 0
BBX 32 40 0 -2
BITMAP
00000000
00000000
00000000
00000000
0ff000ff
0ff000ff
0ff000ff
0ff000ff
00f000f0
00f000f0
00f000f0
00f000f0
00f000f0
00f000f0
00f000f0
00f000f0
000f0f00
000f0f00
000f0f00
000f0f00
000f0f00
000f0f00
000f0f00
000f0f00
0000f000
0000f000
0000f000
0000f000
0000f000
0000f000
0000f000
0000f000
00000000
00000000
00000000
00000000
00000000
00000000
00000000
00000000
ENDCHAR
STARTCHAR C087
ENCODING 87
SWIDTH 666 0
DWIDTH 32 0
BBX 32 40 0 -2
BITMAP
00000000
00000000
00000000
00000000
0f00000f
0f00000f
0f00000f
0f00000f
0f00000f
0f00000f
0f00000f
0f00000f
0f00000f
0f00000f
0f00000f
0f00000f
0f00f00f
0f00f00f
0f00f00f
0f00f00f
0f0f0f0f
0f0f0f0f
0f0f0f0f
0f0f0f0f
0ff000ff
0ff000ff
0ff000ff
0ff000ff
0f00000f
0f00000f
0f00000f
0f00000f
00000000
00000000
00000000
00000000
00000000
00000000
00000000
00000000
ENDCHAR
STARTCHAR C088
ENCODING 88
SWIDTH 666 0
DWIDTH 32 0
BBX 32 40 0 -2
BITMAP
00000000
00000000
00000000
00000000
0f00000f
0f00000f
0f00000f
0f00000f
00f000f0
00f000f0
00f000f0
00f000f0
000f0f00
000f0f00
000f0f00
000f0f00
0000f000
0000f000
0000f000
0000f000
000f0f00
000f0f00
000f0f00
000f0f00
00f000f0
00f000f0
00f000f0
00f000f0
0f00000f
0f00000f
0f00000f
0f00000f
00000000
00000000
00000000
00000000
00000000
00000000
00000000
00000000
ENDCHAR
STARTCHAR C089
ENCODING 89
SWIDTH 666 0
DWIDTH 32 0
BBX 32 40 0 -2
BITMAP
00000000
00000000
00000000
00000000
0f00000f
0f00000f
0f00000f
0f00000f
00f000f0
00f000f0
00f000f0
00f000f0
000f0f00
000f0f00
000f0f00
000f0f00
0000f000
0000f000
0000f000
0000f000
0000f000
0000f000
0000f000
0000f000
0000f000
0000f000
0000f000
0000f000
0000f000
0000f000
0000f000
0000f000
00000000
00000000
00000000
00000000
00000000
00000000
00000000
00000000
ENDCHAR
STARTCHAR C090
ENCODING 90
SWIDTH 666 0
DWIDTH 32 0
BBX 32 40 0 -2
BITMAP
00000000
00000000
00000000
00000000
0fffffff
0fffffff
0fffffff
0fffffff
000000f0
000000f0
000000f0
000000f0
00000f00
00000f00
00000f00
00000f00
0000f000
0000f000
0000f000
0000f000
000f0000
000f0000
000f0000
000f0000
00f00000
00f00000
00f00000
00f00000
0fffffff
0fffffff
0fffffff
0fffffff
00000000
00000000
00000000
00000000
00000000
00000000
00000000
00000000
ENDCHAR
STARTCHAR C091
ENCODING 91
SWIDTH 666 0
DWIDTH 32 0
BBX 32 40 0 -2
BITMAP
0000fff0
0000fff0
0000fff0
0000fff0
0000f000
0000f000
0000f000
0000f000
0000f000
0000f000
0000f000
0000f000
0000f000
0000f000
0000f000
0000f000
0000f000
0000f000
0000f000
0000f000
0000f000
0000f000
0000f000
0000f000
0000f000
0000f000
0000f000
0000f000
0000f000
0000f000
0000f000
0000f000
0000fff0
0000fff0
0000fff0
0000fff0
00000000
00000000
00000000
00000000
ENDCHAR
STARTCHAR C092
ENCODING 92
SWIDTH 666 0
DWIDTH 32 0
BBX 32 40 0 -2
BITMAP
f0000000
f0000000
f0000000
f0000000
0f000000
0f000000
0f000000
0f000000
00f00000
00f00000
00f00000
00f00000
00f00000
00f00000
00f00000
00f00000
000f0000
000f0000
000f0000
000f0000
0000f000
0000f000
0000f000
0000f000
00000f00
00000f00
00000f00
00000f00
00000f00
00000f00
00000f00
00000f00
000000f0
000000f0
000000f0
000000f0
0000000f
0000000f
0000000f
0000000f
ENDCHAR
STARTCHAR C093
ENCODING 93
SWIDTH 666 0
DWIDTH 32 0
BBX 32 40 0 -2
BITMAP
00fff000
00fff000
00fff000
00fff000
0000f000
0000f000
0000f000
0000f000
0000f000
0000f000
0000f000
0000f000
0000f000
0000f000
0000f000
0000f000
0000f000
0000f000
0000f000
0000f000
0000f000
0000f000
0000f000
0000f000
0000f000
0000f000
0000f000
0000f000
0000f000
0000f000
0000f000
0000f000
00fff000
00fff000
00fff000
00fff000
00000000
00000000
00000000
00000000
ENDCHAR
STARTCHAR C094
ENCODING 94
SWIDTH 666 0
DWIDTH 32 0
BBX 32 40 0 -2
BITMAP
0000f000
0000f000
0000f000
0000f000
000f0f00
000f0f00
000f0f00
000f0f00
00f000f0
00f000f0
00f000f0
00f000f0
00000000
00000000
00000000
00000000
00000000
00000000
00000000
00000000
00000000
00000000
00000000
00000000
00000000
00000000
00000000
00000000
00000000
00000000
00000000
00000000
00000000
00000000
00000000
00000000
00000000
00000000
00000000
00000000
ENDCHAR
STARTCHAR C095
ENCODING 95
SWIDTH 666 0
DWIDTH 32 0
BBX 32 40 0 -2
BITMAP
00000000
00000000
00000000
00000000
00000000
00000000
00000000
00000000
00000000
00000000
00000000
00000000
00000000
00000000
00000000
00000000
00000000
00000000
00000000
00000000
00000000
00000000
00000000
00000000
00000000
00000000
00000000
00000000
00000000
00000000
00000000
00000000
00000000
00000000
00000000
00000000
00000000
00000000
00000000
ffffffff
ENDCHAR
STARTCHAR C096
ENCODING 96
SWIDTH 666 0
DWIDTH 32 0
BBX 32 40 0 -2
BITMAP
00000000
00000000
00000000
00000000
00000000
00000000
00000000
00000000
00000000
00000000
00000000
00000000
00000000
00000000
00000000
00000000
00000000
00000000
00000000
00000000
ffffffff
ffffffff
ffffffff
ffffffff
00000000
00000000
00000000
00000000
00000000
00000000
00000000
00000000
00000000
00000000
00000000
00000000
00000000
00000000
00000000
00000000
ENDCHAR
STARTCHAR C097
ENCODING 97
SWIDTH 666 0
DWIDTH 32 0
BBX 32 40 0 -2
BITMAP
00000000
00000000
00000000
00000000
00000000
00000000
00000000
00000000
00000000
00000000
00000000
00000000
00ffffff
00ffffff
00ffffff
00ffffff
0f00000f
0f00000f
0f00000f
0f00000f
0f00000f
0f00000f
0f00000f
0f00000f
0f0000ff
0f0000ff
0f0000ff
0f0000ff
00ffff0f
00ffff0f
00ffff0f
00ffff0f
00000000
00000000
00000000
00000000
00000000
00000000
00000000
00000000
ENDCHAR
STARTCHAR C098
ENCODING 98
SWIDTH 666 0
DWIDTH 32 0
BBX 32 40 0 -2
BITMAP
0f000000
0f000000
0f000000
0f000000
0f000000
0f000000
0f000000
0f000000
0f000000
0f000000
0f000000
0f000000
0ffffff0
0ffffff0
0ffffff0
0ffffff0
0f00000f
0f00000f
0f00000f
0f00000f
0f00000f
0f00000f
0f00000f
0f00000f
0f00000f
0f00000f
0f00000f
0f00000f
0ffffff0
0ffffff0
0ffffff0
0ffffff0
00000000
00000000
00000000
00000000
00000000
00000000
00000000
00000000
ENDCHAR
STARTCHAR C099
ENCODING 99
SWIDTH 666 0
DWIDTH 32 0
BBX 32 40 0 -2
BITMAP
00000000
00000000
00000000
00000000
00000000
00000000
00000000
00000000
00000000
00000000
00000000
00000000
00fffff0
00fffff0
00fffff0
00fffff0
0f000000
0f000000
0f000000
0f000000
0f000000
0f000000
0f000000
0f000000
0f000000
0f000000
0f000000
0f000000
00fffff0
00fffff0
00fffff0
00fffff0
00000000
00000000
00000000
00000000
00000000
00000000
00000000
00000000
ENDCHAR
STARTCHAR C100
ENCODING 100
SWIDTH 666 0
DWIDTH 32 0
BBX 32 40 0 -2
BITMAP
0000000f
0000000f
0000000f
0000000f
0000000f
0000000f
0000000f
0000000f
0000000f
0000000f
0000000f
0000000f
00ffffff
00ffffff
00ffffff
00ffffff
0f00000f
0f00000f
0f00000f
0f00000f
0f00000f
0f00000f
0f00000f
0f00000f
0f00000f
0f00000f
0f00000f
0f00000f
00ffffff
00ffffff
00ffffff
00ffffff
00000000
00000000
00000000
00000000
00000000
00000000
00000000
00000000
ENDCHAR
STARTCHAR C101
ENCODING 101
SWIDTH 666 0
DWIDTH 32 0
BBX 32 40 0 -2
BITMAP
00000000
00000000
00000000
00000000
00000000
00000000
00000000
00000000
00000000
00000000
00000000
00000000
00fffff0
00fffff0
00fffff0
00fffff0
0f00000f
0f00000f
0f00000f
0f00000f
0fffffff
0fffffff
0fffffff
0fffffff
0f000000
0f000000
0f000000
0f000000
00fffff0
00fffff0
00fffff0
00fffff0
00000000
00000000
00000000
00000000
00000000
00000000
00000000
00000000
ENDCHAR
STARTCHAR C102
ENCODING 102
SWIDTH 666 0
DWIDTH 32 0
BBX 32 40 0 -2
BITMAP
000ffff0
000ffff0
000ffff0
000ffff0
00f00000
00f00000
00f00000
00f00000
00f00000
00f00000
00f00000
00f00000
0ffff000
0ffff000
0ffff000
0ffff000
00f00000
00f00000
00f00000
00f00000
00f00000
00f00000
00f00000
00f00000
00f00000
00f00000
00f00000
00f00000
00f00000
00f00000
00f00000
00f00000
00000000
00000000
00000000
00000000
00000000
00000000
00000000
00000000
ENDCHAR
STARTCHAR C103
ENCODING 103
SWIDTH 666 0
DWIDTH 32 0
BBX 32 40 0 -2
BITMAP
00000000
00000000
00000000
00000000
00000000
00000000
00000000
00000000
00000000
00000000
00000000
00000000
00ffffff
00ffffff
00ffffff
00ffffff
0f00000f
0f00000f
0f00000f
0f00000f
0f00000f
0f00000f
0f00000f
0f00000f
0f00000f
0f00000f
0f00000f
0f00000f
00ffffff
00ffffff
00ffffff
00ffffff
0000000f
0000000f
0000000f
0000000f
00fffff0
00fffff0
00fffff0
00fffff0
ENDCHAR
STARTCHAR C104
ENCODING 104
SWIDTH 666 0
DWIDTH 32 0
BBX 32 40 0 -2
BITMAP
0f000000
0f000000
0f000000
0f000000
0f000000
0f000000
0f000000
0f000000
0f000000
0f000000
0f000000
0f000000
0ffffff0
0ffffff0
0ffffff0
0ffffff0
0f00000f
0f00000f
0f00000f
0f00000f
0f00000f
0f00000f
0f00000f
0f00000f
0f00000f
0f00000f
0f00000f
0f00000f
0f00000f
0f00000f
0f00000f
0f00000f
00000000
00000000
00000000
00000000
00000000
00000000
00000000
00000000
ENDCHAR
STARTCHAR C105
ENCODING 105
SWIDTH 666 0
DWIDTH 32 0
BBX 32 40 0 -2
BITMAP
0000f000
0000f000
0000f000
0000f000
0000f000
0000f000
0000f000
0000f000
00000000
00000000
00000000
00000000
00fff000
00fff000
00fff000
00fff000
0000f000
0000f000
0000f000
0000f000
0000f000
0000f000
0000f000
0000f000
0000f000
0000f000
0000f000
0000f000
00fffff0
00fffff0
00fffff0
00fffff0
00000000
00000000
00000000
00000000
00000000
00000000
00000000
00000000
ENDCHAR
STARTCHAR C106
ENCODING 106
SWIDTH 666 0
DWIDTH 32 0
BBX 32 40 0 -2
BITMAP
000000f0
000000f0
000000f0
000000f0
000000f0
000000f0
000000f0
000000f0
00000000
00000000
00000000
00000000
000ffff0
000ffff0
000ffff0
000ffff0
000000f0
000000f0
000000f0
000000f0
000000f0
000000f0
000000f0
000000f0
000000f0
000000f0
000000f0
000000f0
000000f0
000000f0
000000f0
000000f0
000000f0
000000f0
000000f0
000000f0
00ffff00
00ffff00
00ffff00
00ffff00
ENDCHAR
STARTCHAR C107
ENCODING 107
SWIDTH 666 0
DWIDTH 32 0
BBX 32 40 0 -2
BITMAP
0f000000
0f000000
0f000000
0f000000
0f000000
0f000000
0f000000
0f000000
0f000000
0f000000
0f000000
0f000000
0f000ff0
0f000ff0
0f000ff0
0f000ff0
0f00f000
0f00f000
0f00f000
0f00f000
0fff0000
0fff0000
0fff0000
0fff0000
0f00f000
0f00f000
0f00f000
0f00f000
0f000ff0
0f000ff0
0f000ff0
0f000ff0
00000000
00000000
00000000
00000000
00000000
00000000
00000000
00000000
ENDCHAR
STARTCHAR C108
ENCODING 108
SWIDTH 666 0
DWIDTH 32 0
BBX 32 40 0 -2
BITMAP
000ff000
000ff000
000ff000
000ff000
0000f000
0000f000
0000f000
0000f000
0000f000
0000f000
0000f000
0000f000
0000f000
0000f000
0000f000
0000f000
0000f000
0000f000
0000f000
0000f000
0000f000
0000f000
0000f000
0000f000
0000f000
0000f000
0000f000
0000f000
000fff00
000fff00
000fff00
000fff00
00000000
00000000
00000000
00000000
00000000
00000000
00000000
00000000
ENDCHAR
STARTCHAR C109
ENCODING 109
SWIDTH 666 0
DWIDTH 32 0
BBX 32 40 0 -2
BITMAP
00000000
00000000
00000000
00000000
00000000
00000000
00000000
00000000
00000000
00000000
00000000
00000000
0fff0ff0
0fff0ff0
0fff0ff0
0fff0ff0
0f00f00f
0f00f00f
0f00f00f
0f00f00f
0f00f00f
0f00f00f
0f00f00f
0f00f00f
0f00f00f
0f00f00f
0f00f00f
0f00f00f
0f00000f
0f00000f
0f00000f
0f00000f
00000000
00000000
00000000
00000000
00000000
00000000
00000000
00000000
ENDCHAR
STARTCHAR C110
ENCODING 110
SWIDTH 666 0
DWIDTH 32 0
BBX 32 40 0 -2
BITMAP
00000000
00000000
00000000
00000000
00000000
00000000
00000000
00000000
00000000
00000000
00000000
00000000
0f0ffff0
0f0ffff0
0f0ffff0
0f0ffff0
0ff0000f
0ff0000f
0ff0000f
0ff0000f
0f00000f
0f00000f
0f00000f
0f00000f
0f00000f
0f00000f
0f00000f
0f00000f
0f00000f
0f00000f
0f00000f
0f00000f
00000000
00000000
00000000
00000000
00000000
00000000
00000000
00000000
ENDCHAR
STARTCHAR C111
ENCODING 111
SWIDTH 666 0
DWIDTH 32 0
BBX 32 40 0 -2
BITMAP
00000000
00000000
00000000
00000000
00000000
00000000
00000000
00000000
00000000
00000000
00000000
00000000
00fffff0
00fffff0
00fffff0
00fffff0
0f00000f
0f00000f
0f00000f
0f00000f
0f00000f
0f00000f
0f00000f
0f00000f
0f00000f
0f00000f
0f00000f
0f00000f
00fffff0
00fffff0
00fffff0
00fffff0
00000000
00000000
00000000
00000000
00000000
00000000
00000000
00000000
ENDCHAR
STARTCHAR C112
ENCODING 112
SWIDTH 666 0
DWIDTH 32 0
BBX 32 40 0 -2
BITMAP
00000000
00000000
00000000
00000000
00000000
00000000
00000000
00000000
00000000
00000000
00000000
00000000
0ffffff0
0ffffff0
0ffffff0
0ffffff0
0f00000f
0f00000f
0f00000f
0f00000f
0f00000f
0f00000f
0f00000f
0f00000f
0f00000f
0f00000f
0f00000f
0f00000f
0ffffff0
0ffffff0
0ffffff0
0ffffff0
0f000000
0f000000
0f000000
0f000000
0f000000
0f000000
0f000000
0f000000
ENDCHAR
STARTCHAR C113
ENCODING 113
SWIDTH 666 0
DWIDTH 32 0
BBX 32 40 0 -2
BITMAP
00000000
00000000
00000000
00000000
00000000
00000000
00000000
00000000
00000000
00000000
00000000
00000000
00ffffff
00ffffff
00ffffff
00ffffff
0f00000f
0f00000f
0f00000f
0f00000f
0f00000f
0f00000f
0f00000f
0f00000f
0f00000f
0f00000f
0f00000f
0f00000f
00ffffff
00ffffff
00ffffff
00ffffff
0000000f
0000000f
0000000f
0000000f
0000000f
0000000f
0000000f
0000000f
ENDCHAR
STARTCHAR C114
ENCODING 114
SWIDTH 666 0
DWIDTH 32 0
BBX 32 40 0 -2
BITMAP
00000000
00000000
00000000
00000000
00000000
00000000
00000000
00000000
00000000
00000000
00000000
00000000
00f0fff0
00f0fff0
00f0fff0
00f0fff0
00ff0000
00ff0000
00ff0000
00ff0000
00f00000
00f00000
00f00000
00f00000
00f00000
00f00000
00f00000
00f00000
00f00000
00f00000
00f00000
00f00000
00000000
00000000
00000000
00000000
00000000
00000000
00000000
00000000
ENDCHAR
STARTCHAR C115
ENCODING 115
SWIDTH 666 0
DWIDTH 32 0
BBX 32 40 0 -2
BITMAP
00000000
00000000
00000000
00000000
00000000
00000000
00000000
00000000
00000000
00000000
00000000
00000000
00fffff0
00fffff0
00fffff0
00fffff0
0f000000
0f000000
0f000000
0f000000
00ffff00
00ffff00
00ffff00
00ffff00
000000f0
000000f0
000000f0
000000f0
0fffff00
0fffff00
0fffff00
0fffff00
00000000
00000000
00000000
00000000
00000000
00000000
00000000
00000000
ENDCHAR
STARTCHAR C116
ENCODING 116
SWIDTH 666 0
DWIDTH 32 0
BBX 32 40 0 -2
BITMAP
000f0000
000f0000
000f0000
000f0000
000f0000
000f0000
000f0000
000f0000
000f0000
000f0000
000f0000
000f0000
0ffffff0
0ffffff0
0ffffff0
0ffffff0
000f0000
000f0000
000f0000
000f0000
000f0000
000f0000
000f0000
000f0000
000f0000
000f0000
000f0000
000f0000
0000fff0
0000fff0
0000fff0
0000fff0
00000000
00000000
00000000
00000000
00000000
00000000
00000000
00000000
ENDCHAR
STARTCHAR C117
ENCODING 117
SWIDTH 666 0
DWIDTH 32 0
BBX 32 40 0 -2
BITMAP
00000000
00000000
00000000
00000000
00000000
00000000
00000000
00000000
00000000
00000000
00000000
00000000
0f00000f
0f00000f
0f00000f
0f00000f
0f00000f
0f00000f
0f00000f
0f00000f
0f00000f
0f00000f
0f00000f
0f00000f
0f0000ff
0f0000ff
0f0000ff
0f0000ff
00ffff0f
00ffff0f
00ffff0f
00ffff0f
00000000
00000000
00000000
00000000
00000000
00000000
00000000
00000000
ENDCHAR
STARTCHAR C118
ENCODING 118
SWIDTH 666 0
DWIDTH 32 0
BBX 32 40 0 -2
BITMAP
00000000
00000000
00000000
00000000
00000000
00000000
00000000
00000000
00000000
00000000
00000000
00000000
0ff000ff
0ff000ff
0ff000ff
0ff000ff
00f000f0
00f000f0
00f000f0
00f000f0
000f0f00
000f0f00
000f0f00
000f0f00
000f0f00
000f0f00
000f0f00
000f0f00
0000f000
0000f000
0000f000
0000f000
00000000
00000000
00000000
00000000
00000000
00000000
00000000
00000000
ENDCHAR
STARTCHAR C119
ENCODING 119
SWIDTH 666 0
DWIDTH 32 0
BBX 32 40 0 -2
BITMAP
00000000
00000000
00000000
00000000
00000000
00000000
00000000
00000000
00000000
00000000
00000000
00000000
0f00000f
0f00000f
0f00000f
0f00000f
0f00f00f
0f00f00f
0f00f00f
0f00f00f
0f00f00f
0f00f00f
0f00f00f
0f00f00f
0f00f00f
0f00f00f
0f00f00f
0f00f00f
00ff0ff0
00ff0ff0
00ff0ff0
00ff0ff0
00000000
00000000
00000000
00000000
00000000
00000000
00000000
00000000
ENDCHAR
STARTCHAR C120
ENCODING 120
SWIDTH 666 0
DWIDTH 32 0
BBX 32 40 0 -2
BITMAP
00000000
00000000
00000000
00000000
00000000
00000000
00000000
00000000
00000000
00000000
00000000
00000000
0ff000ff
0ff000ff
0ff000ff
0ff000ff
000f0f00
000f0f00
000f0f00
000f0f00
0000f000
0000f000
0000f000
0000f000
000f0f00
000f0f00
000f0f00
000f0f00
0ff000ff
0ff000ff
0ff000ff
0ff000ff
00000000
00000000
00000000
00000000
00000000
00000000
00000000
00000000
ENDCHAR
STARTCHAR C121
ENCODING 121
SWIDTH 666 0
DWIDTH 32 0
BBX 32 40 0 -2
BITMAP
00000000
00000000
00000000
00000000
00000000
00000000
00000000
00000000
00000000
00000000
00000000
00000000
0f0000f0
0f0000f0
0f0000f0
0f0000f0
0f0000f0
0f0000f0
0f0000f0
0f0000f0
0f0000f0
0f0000f0
0f0000f0
0f0000f0
0f0000f0
0f0000f0
0f0000f0
0f0000f0
00fffff0
00fffff0
00fffff0
00fffff0
000000f0
000000f0
000000f0
000000f0
00ffff00
00ffff00
00ffff00
00ffff00
ENDCHAR
STARTCHAR C122
ENCODING 122
SWIDTH 666 0
DWIDTH 32 0
BBX 32 40 0 -2
BITMAP
00000000
00000000
00000000
00000000
00000000
00000000
00000000
00000000
00000000
00000000
00000000
00000000
0ffffff0
0ffffff0
0ffffff0
0ffffff0
00000f00
00000f00
00000f00
00000f00
000ff000
000ff000
000ff000
000ff000
00f00000
00f00000
00f00000
00f00000
0ffffff0
0ffffff0
0ffffff0
0ffffff0
00000000
00000000
00000000
00000000
00000000
00000000
00000000
00000000
ENDCHAR
STARTCHAR C123
ENCODING 123
SWIDTH 666 0
DWIDTH 32 0
BBX 32 40 0 -2
BITMAP
f0000000
f0000000
f0000000
f0000000
f0000000
f0000000
f0000000
f0000000
f0000000
f0000000
f0000000
f0000000
f0000000
f0000000
f0000000
f0000000
f0000000
f0000000
f0000000
f0000000
f0000000
f0000000
f0000000
f0000000
f0000000
f0000000
f0000000
f0000000
f0000000
f0000000
f0000000
f0000000
f0000000
f0000000
f0000000
f0000000
f0000000
f0000000
f0000000
f0000000
ENDCHAR
STARTCHAR C124
ENCODING 124
SWIDTH 666 0
DWIDTH 32 0
BBX 32 40 0 -2
BITMAP
0000f000
0000f000
0000f000
0000f000
0000f000
0000f000
0000f000
0000f000
0000f000
0000f000
0000f000
0000f000
0000f000
0000f000
0000f000
0000f000
0000f000
0000f000
0000f000
0000f000
0000f000
0000f000
0000f000
0000f000
0000f000
0000f000
0000f000
0000f000
0000f000
0000f000
0000f000
0000f000
0000f000
0000f000
0000f000
0000f000
0000f000
0000f000
0000f000
0000f000
ENDCHAR
STARTCHAR C125
ENCODING 125
SWIDTH 666 0
DWIDTH 32 0
BBX 32 40 0 -2
BITMAP
0000000f
0000000f
0000000f
0000000f
0000000f
0000000f
0000000f
0000000f
0000000f
0000000f
0000000f
0000000f
0000000f
0000000f
0000000f
0000000f
0000000f
0000000f
0000000f
0000000f
0000000f
0000000f
0000000f
0000000f
0000000f
0000000f
0000000f
0000000f
0000000f
0000000f
0000000f
0000000f
0000000f
0000000f
0000000f
0000000f
0000000f
0000000f
0000000f
0000000f
ENDCHAR
STARTCHAR C126
ENCODING 126
SWIDTH 666 0
DWIDTH 32 0
BBX 32 40 0 -2
BITMAP
ffffffff
ffffffff
ffffffff
ffffffff
00000000
00000000
00000000
00000000
00000000
00000000
00000000
00000000
00000000
00000000
00000000
00000000
00000000
00000000
00000000
00000000
00000000
00000000
00000000
00000000
00000000
00000000
00000000
00000000
00000000
00000000
00000000
00000000
00000000
00000000
00000000
00000000
00000000
00000000
00000000
00000000
ENDCHAR
STARTCHAR C127
ENCODING 127
SWIDTH 666 0
DWIDTH 32 0
BBX 32 40 0 -2
BITMAP
ffffffff
ffffffff
ffffffff
ffffffff
ffffffff
ffffffff
ffffffff
ffffffff
ffffffff
ffffffff
ffffffff
ffffffff
ffffffff
ffffffff
ffffffff
ffffffff
ffffffff
ffffffff
ffffffff
ffffffff
ffffffff
ffffffff
ffffffff
ffffffff
ffffffff
ffffffff
ffffffff
ffffffff
ffffffff
ffffffff
ffffffff
ffffffff
ffffffff
ffffffff
ffffffff
ffffffff
ffffffff
ffffffff
ffffffff
ffffffff
ENDCHAR
ENDFONT
